HIERARCHY
ROOT Hips
{
	OFFSET 0.00000 0.00000 0.00000
	CHANNELS 6 Xposition Yposition Zposition Zrotation Yrotation Xrotation 
	JOINT LHipJoint
	{
		OFFSET 0 0 0
		CHANNELS 3 Zrotation Yrotation Xrotation
		JOINT LeftUpLeg
		{
			OFFSET 1.55766 -1.60504 1.11378
			CHANNELS 3 Zrotation Yrotation Xrotation
			JOINT LeftLeg
			{
				OFFSET 2.29047 -6.29302 0.00000
				CHANNELS 3 Zrotation Yrotation Xrotation
				JOINT LeftFoot
				{
					OFFSET 2.52265 -6.93093 0.00000
					CHANNELS 3 Zrotation Yrotation Xrotation
					JOINT LeftToeBase
					{
						OFFSET 0.17633 -0.48446 2.02656
						CHANNELS 3 Zrotation Yrotation Xrotation
						End Site
						{
							OFFSET 0.00000 -0.00000 1.04989
						}
					}
				}
			}
		}
	}
	JOINT RHipJoint
	{
		OFFSET 0 0 0
		CHANNELS 3 Zrotation Yrotation Xrotation
		JOINT RightUpLeg
		{
			OFFSET -1.48599 -1.60504 1.11378
			CHANNELS 3 Zrotation Yrotation Xrotation
			JOINT RightLeg
			{
				OFFSET -2.27280 -6.24448 0.00000
				CHANNELS 3 Zrotation Yrotation Xrotation
				JOINT RightFoot
				{
					OFFSET -2.50834 -6.89161 0.00000
					CHANNELS 3 Zrotation Yrotation Xrotation
					JOINT RightToeBase
					{
						OFFSET -0.26967 -0.74090 2.08741
						CHANNELS 3 Zrotation Yrotation Xrotation
						End Site
						{
							OFFSET -0.00000 -0.00000 1.10614
						}
					}
				}
			}
		}
	}
	JOINT LowerBack
	{
		OFFSET 0 0 0
		CHANNELS 3 Zrotation Yrotation Xrotation
		JOINT Spine
		{
			OFFSET 0.06481 2.02437 -0.08472
			CHANNELS 3 Zrotation Yrotation Xrotation
			JOINT Spine1
			{
				OFFSET 0.00015 1.96711 0.18069
				CHANNELS 3 Zrotation Yrotation Xrotation
				JOINT Neck
				{
					OFFSET 0 0 0
					CHANNELS 3 Zrotation Yrotation Xrotation
					JOINT Neck1
					{
						OFFSET -0.29961 1.68293 -0.13041
						CHANNELS 3 Zrotation Yrotation Xrotation
						JOINT Head
						{
							OFFSET 0.59697 1.61501 -0.14669
							CHANNELS 3 Zrotation Yrotation Xrotation
							End Site
							{
								OFFSET 0.22973 1.74906 -0.10148
							}
						}
					}
				}
				JOINT LeftShoulder
				{
					OFFSET 0 0 0
					CHANNELS 3 Zrotation Yrotation Xrotation
					JOINT LeftArm
					{
						OFFSET 3.37968 1.02893 0.31147
						CHANNELS 3 Zrotation Yrotation Xrotation
						JOINT LeftForeArm
						{
							OFFSET 5.19807 -0.00000 -0.00000
							CHANNELS 3 Zrotation Yrotation Xrotation
							JOINT LeftHand
							{
								OFFSET 3.09370 -0.00000 -0.00000
								CHANNELS 3 Zrotation Yrotation Xrotation
								JOINT LeftFingerBase
								{
									OFFSET 0 0 0
									CHANNELS 3 Zrotation Yrotation Xrotation
									JOINT LeftHandIndex1
									{
										OFFSET 0.67263 -0.00000 -0.00000
										CHANNELS 3 Zrotation Yrotation Xrotation
										End Site
										{
											OFFSET 0.54229 -0.00000 -0.00000
										}
									}
								}
								JOINT LThumb
								{
									OFFSET 0 0 0
									CHANNELS 3 Zrotation Yrotation Xrotation
									End Site
									{
										OFFSET 0.55057 -0.00000 0.55057
									}
								}
							}
						}
					}
				}
				JOINT RightShoulder
				{
					OFFSET 0 0 0
					CHANNELS 3 Zrotation Yrotation Xrotation
					JOINT RightArm
					{
						OFFSET -3.38254 0.96355 -0.16120
						CHANNELS 3 Zrotation Yrotation Xrotation
						JOINT RightForeArm
						{
							OFFSET -5.45222 -0.00000 -0.00000
							CHANNELS 3 Zrotation Yrotation Xrotation
							JOINT RightHand
							{
								OFFSET -3.01284 -0.00000 -0.00000
								CHANNELS 3 Zrotation Yrotation Xrotation
								JOINT RightFingerBase
								{
									OFFSET 0 0 0
									CHANNELS 3 Zrotation Yrotation Xrotation
									JOINT RightHandIndex1
									{
										OFFSET -0.62230 -0.00000 -0.00000
										CHANNELS 3 Zrotation Yrotation Xrotation
										End Site
										{
											OFFSET -0.50171 -0.00000 -0.00000
										}
									}
								}
								JOINT RThumb
								{
									OFFSET 0 0 0
									CHANNELS 3 Zrotation Yrotation Xrotation
									End Site
									{
										OFFSET -0.50937 -0.00000 0.50937
									}
								}
							}
						}
					}
				}
			}
		}
	}
}
MOTION
Frames: 12
Frame Time: .0083333
-6.7148 15.5474 38.815 0 0 0 0 0 0 -21 0 0 0 0 0 0 0 0 0 0 0 0 0 0 21 0 0 0 0 0 0 0 0 0 0 0 0 0 0 0 0 0 0 0 0 0 0 -16 0 0 21 0 0 11 0 0 0 -8 0 0 0 0 0 0 0 0 0 0 0 0 0 0 0 0 0 0 0 0 8 0 0 0 0 0 0 0 0 0 0 0 0 0 0 0 0 0
-6.7148 15.5474 38.8150 -172.6200 -4.8322 -171.8290 0.0000 0.0000 0.0000 -4.1809 -13.5919 -49.7431 16.4015 19.6867 79.4257 -0.1416 -7.7601 -1.4164 1.9620 -8.7864 -25.1293 0.0000 0.0000 0.0000 33.2970 0.3705 -19.3582 -2.3423 -9.5453 27.5164 -0.4981 18.6775 -17.1927 -0.1900 2.8069 -7.7416 9.0972 2.0956 2.9083 0.1734 3.1305 -6.2778 -5.1742 0.8364 -7.8126 -29.3075 -7.7548 14.6372 44.6392 -18.2314 -12.5144 23.0803 -12.7403 2.1251 -0.0000 -0.0000 0.0000 -88.3100 20.5404 26.6285 89.5178 -59.9991 -59.5824 -0.0000 0.0000 -55.4339 -18.3369 9.0280 -2.9771 -7.1250 0.0000 -0.0000 -36.6080 36.3817 9.4014 -0.0000 -0.0000 0.0000 88.5574 -16.6812 36.3902 -95.0217 59.9045 -64.3476 0.0000 -0.0000 -5.2305 -19.4157 -3.4615 1.2191 7.1250 -0.0000 -0.0000 5.8876 -33.6067 1.6522
-6.7179 15.5485 38.8131 -172.3420 -4.5198 -172.2340 0.0000 0.0000 0.0000 -3.7482 -13.3652 -50.9783 17.1293 19.8013 81.5797 -0.1326 -7.5940 -1.5136 1.9281 -8.7147 -24.9067 0.0000 0.0000 0.0000 33.6013 -0.0983 -18.7099 -2.2458 -9.3603 26.9291 -0.4168 19.1560 -16.8389 -0.1732 2.6809 -7.3916 9.3399 2.1874 3.5146 0.2871 3.3576 -6.1489 -5.2339 0.9385 -7.9905 -29.2766 -7.7832 14.7417 44.6837 -18.2480 -12.7218 23.1161 -12.7655 2.0634 0.0000 0.0000 0.0000 -88.6073 20.6272 27.8281 92.8255 -59.9698 -62.4467 -0.0000 0.0000 -51.4759 -13.2727 4.9229 -1.1597 -7.1250 0.0000 -0.0000 -31.5338 33.3154 10.4474 0.0000 0.0000 0.0000 88.4375 -16.2269 36.4465 -97.7906 59.7694 -66.7417 0.0000 -0.0000 -5.0260 -19.6786 -3.5882 1.2822 7.1250 -0.0000 -0.0000 5.6848 -33.7496 1.5751
-6.7175 15.5493 38.8084 -172.0550 -4.3667 -172.6340 0.0000 0.0000 0.0000 -3.2749 -13.2539 -52.2118 17.8371 19.8875 83.6648 -0.1289 -7.5038 -1.5171 1.8508 -8.5482 -24.3918 0.0000 0.0000 0.0000 33.9339 -0.5319 -18.0583 -2.1583 -9.1882 26.3859 -0.3539 19.4648 -16.5381 -0.1538 2.5274 -6.9656 9.5687 2.2488 4.0281 0.3967 3.5316 -6.0504 -5.2839 1.0122 -8.1553 -29.2521 -7.6748 15.0130 44.7633 -18.1330 -12.8890 23.2729 -12.7491 1.9233 0.0000 -0.0000 0.0000 -88.7984 20.7337 29.1173 95.8531 -59.8702 -65.0667 -0.0000 0.0000 -47.5333 -7.6649 1.5633 -0.2104 -7.1250 0.0000 -0.0000 -26.5383 30.7096 10.2783 0.0000 -0.0000 0.0000 88.3784 -15.8696 36.4119 -100.4061 59.5868 -68.9994 0.0000 -0.0000 -4.8699 -19.8406 -3.6742 1.3246 7.1250 -0.0000 -0.0000 5.5602 -33.8462 1.5272
-6.7208 15.5579 38.7950 -171.9550 -3.9878 -172.7400 0.0000 0.0000 0.0000 -3.0373 -12.9692 -53.6549 18.5169 19.9472 85.6601 -0.1242 -7.6021 -1.8592 1.8996 -8.6538 -24.7181 0.0000 0.0000 0.0000 34.0382 -0.8132 -17.6520 -2.0746 -9.0197 25.8569 -0.2742 19.9172 -16.2009 -0.1423 2.4309 -6.6981 9.6047 2.3912 4.2768 0.4515 3.7625 -5.9697 -5.2779 1.1295 -8.1779 -29.2114 -7.7893 14.9200 44.7497 -18.2496 -12.9217 23.1805 -12.7930 1.9808 -0.0000 -0.0000 0.0000 -88.9349 20.6229 30.6812 97.1505 -59.8059 -66.1884 -0.0000 0.0000 -43.0353 -0.8909 -3.5387 0.0550 -7.1250 0.0000 -0.0000 -20.5566 26.2699 9.9504 -0.0000 -0.0000 0.0000 88.2844 -15.2353 36.4507 -102.1885 59.4311 -70.5354 0.0000 -0.0000 -4.6277 -19.9777 -3.6801 1.3367 7.1250 -0.0000 -0.0000 5.4488 -33.8573 1.4949
-6.7236 15.5617 38.7834 -171.7950 -3.6837 -172.9150 0.0000 0.0000 0.0000 -2.7255 -12.7327 -55.0539 19.1883 19.9842 87.6262 -0.1217 -7.6443 -2.0166 1.8997 -8.6540 -24.7187 0.0000 0.0000 0.0000 34.2078 -1.1291 -17.2084 -1.9976 -8.8610 25.3616 -0.2000 20.3222 -15.8863 -0.1280 2.3063 -6.3528 9.7098 2.5071 4.5681 0.5242 3.9692 -5.8867 -5.2923 1.2295 -8.2252 -29.1946 -7.8064 14.9471 44.7780 -18.2603 -13.0009 23.1978 -12.8044 1.9638 -0.0000 -0.0000 0.0000 -89.0760 20.5067 31.6297 99.1395 -59.6820 -67.9066 -0.0000 0.0000 -39.9728 4.1513 -6.1675 -0.4468 -7.1250 0.0000 -0.0000 -16.5539 23.8099 8.8219 -0.0000 -0.0000 0.0000 88.2007 -14.6950 36.4786 -104.1604 59.2286 -72.2315 0.0000 -0.0000 -4.4252 -20.1477 -3.7258 1.3657 7.1250 -0.0000 -0.0000 5.3139 -33.9119 1.4505
-6.7271 15.5665 38.7686 -171.6680 -3.3880 -173.0200 0.0000 0.0000 0.0000 -2.4561 -12.5060 -56.4951 19.8365 19.9994 89.5219 -0.1209 -7.7357 -2.1750 1.9081 -8.6719 -24.7742 0.0000 0.0000 0.0000 34.3392 -1.4099 -16.8363 -1.9275 -8.7134 24.9029 -0.1287 20.7142 -15.5937 -0.1147 2.1835 -6.0130 9.7889 2.6250 4.7626 0.5848 4.1626 -5.8213 -5.2994 1.3243 -8.2371 -29.1936 -7.8137 14.9594 44.8014 -18.2630 -13.0450 23.2169 -12.8089 1.9563 -0.0000 -0.0000 0.0000 -89.1767 20.3123 32.2648 100.9954 -59.5382 -69.5076 -0.0000 0.0000 -37.8651 7.9304 -7.8824 -1.0945 -7.1250 0.0000 -0.0000 -13.6759 22.0897 7.7469 -0.0000 -0.0000 0.0000 88.1257 -14.1441 36.5175 -105.8812 59.0252 -73.7085 0.0000 -0.0000 -4.2154 -20.3175 -3.7693 1.3943 7.1250 -0.0000 -0.0000 5.1789 -33.9642 1.4068
-6.7313 15.5721 38.7507 -171.5630 -3.1000 -173.0690 0.0000 0.0000 0.0000 -2.2230 -12.2890 -57.9618 20.4612 19.9949 91.3487 -0.1215 -7.8672 -2.3341 1.9220 -8.7017 -24.8666 0.0000 0.0000 0.0000 34.4432 -1.6639 -16.5168 -1.8621 -8.5727 24.4675 -0.0594 21.0954 -15.3190 -0.1021 2.0610 -5.6742 9.8550 2.7429 4.8742 0.6355 4.3427 -5.7746 -5.3041 1.4129 -8.2225 -29.2093 -7.8134 14.9671 44.8173 -18.2625 -13.0575 23.2359 -12.8093 1.9571 -0.0000 0.0000 0.0000 -89.2401 20.0595 32.6081 102.7868 -59.3731 -71.0504 -0.0000 0.0000 -36.6866 10.3910 -8.9017 -1.6253 -7.1250 0.0000 -0.0000 -11.8493 21.0098 6.9609 -0.0000 0.0000 0.0000 88.0610 -13.5935 36.5719 -107.3623 58.8298 -74.9771 0.0000 -0.0000 -3.9940 -20.4816 -3.8228 1.4265 7.1250 -0.0000 -0.0000 5.0492 -34.0270 1.3636
-6.7361 15.5783 38.7299 -171.4690 -2.8247 -173.0810 0.0000 0.0000 0.0000 -2.0149 -12.0873 -59.4339 21.0586 19.9731 93.0964 -0.1236 -8.0229 -2.4720 1.9340 -8.7272 -24.9457 0.0000 0.0000 0.0000 34.5340 -1.8982 -16.2268 -1.7998 -8.4360 24.0463 0.0069 21.4596 -15.0626 -0.0903 1.9383 -5.3351 9.9213 2.8567 4.9279 0.6790 4.5085 -5.7529 -5.3124 1.4925 -8.2027 -29.2373 -7.8002 14.9899 44.8150 -18.2579 -13.0179 23.2494 -12.8045 1.9639 0.0000 0.0000 0.0000 -89.2643 19.7863 32.7212 104.5538 -59.1843 -72.5694 -0.0000 0.0000 -36.2728 11.7364 -9.3838 -1.9401 -7.1250 0.0000 -0.0000 -10.8671 20.4759 6.4953 0.0000 0.0000 0.0000 88.0105 -13.0752 36.6454 -108.6427 58.6452 -76.0716 0.0000 -0.0000 -3.7701 -20.6408 -3.9047 1.4694 7.1250 -0.0000 -0.0000 4.9257 -34.1200 1.3189
-6.7412 15.5846 38.7061 -171.3860 -2.5824 -173.0770 0.0000 0.0000 0.0000 -1.8351 -11.9206 -60.8821 21.6256 19.9365 94.7578 -0.1267 -8.1948 -2.5985 1.9493 -8.7596 -25.0463 0.0000 0.0000 0.0000 34.6133 -2.1279 -15.9463 -1.7401 -8.3024 23.6365 0.0672 21.7909 -14.8370 -0.0799 1.8230 -5.0167 9.9860 2.9563 4.9480 0.7169 4.6499 -5.7517 -5.3216 1.5582 -8.1893 -29.2744 -7.7856 15.0183 44.7883 -18.2632 -12.9192 23.2435 -12.7994 1.9852 0.0000 -0.0000 0.0000 -89.2516 19.5186 32.7184 106.2607 -58.9770 -74.0338 -0.0000 0.0000 -36.2914 12.4668 -9.5244 -2.0951 -7.1250 0.0000 -0.0000 -10.3422 20.3026 6.2119 0.0000 -0.0000 0.0000 87.9725 -12.5862 36.7429 -109.7349 58.4760 -77.0035 0.0000 -0.0000 -3.5483 -20.7758 -4.0247 1.5253 7.1250 -0.0000 -0.0000 4.8250 -34.2530 1.2762
-6.7465 15.5907 38.6800 -171.3140 -2.3703 -173.0660 0.0000 0.0000 0.0000 -1.6831 -11.7919 -62.2994 22.1607 19.8877 96.3288 -0.1303 -8.3687 -2.7112 1.9725 -8.8085 -25.1980 0.0000 0.0000 0.0000 34.6810 -2.3497 -15.6712 -1.6837 -8.1735 23.2424 0.1195 22.0818 -14.6491 -0.0714 1.7240 -4.7435 10.0440 3.0402 4.9523 0.7503 4.7672 -5.7703 -5.3293 1.6101 -8.1923 -29.3134 -7.7745 15.0449 44.7317 -18.2820 -12.7561 23.2088 -12.7942 2.0236 0.0000 0.0000 0.0000 -89.2044 19.2862 32.7389 107.8024 -58.7680 -75.3535 -0.0000 0.0000 -36.2664 13.2273 -9.6186 -2.2491 -7.1250 0.0000 -0.0000 -9.7984 20.1719 5.9045 0.0000 0.0000 0.0000 87.9479 -12.1329 36.8675 -110.6782 58.3211 -77.8069 0.0000 -0.0000 -3.3374 -20.8828 -4.1988 1.6001 7.1250 -0.0000 -0.0000 4.7517 -34.4426 1.2348
-6.7517 15.5964 38.6521 -171.2580 -2.1754 -173.0480 0.0000 0.0000 0.0000 -1.5608 -11.6924 -63.6838 22.6620 19.8292 97.8046 -0.1342 -8.5362 -2.8055 2.0016 -8.8693 -25.3874 0.0000 0.0000 0.0000 34.7313 -2.5473 -15.4002 -1.6313 -8.0517 22.8713 0.1633 22.3299 -14.4993 -0.0649 1.6437 -4.5220 10.0857 3.1120 4.9488 0.7781 4.8657 -5.8038 -5.3320 1.6518 -8.2105 -29.3490 -7.7735 15.0547 44.6478 -18.3174 -12.5387 23.1418 -12.7903 2.0810 0.0000 0.0000 0.0000 -89.1258 19.0815 32.7721 109.2202 -58.5571 -76.5645 -0.0000 0.0000 -36.2024 13.9646 -9.6520 -2.3875 -7.1250 0.0000 -0.0000 -9.2734 20.1016 5.5943 0.0000 0.0000 0.0000 87.9355 -11.7081 37.0246 -111.5088 58.1777 -78.5132 0.0000 -0.0000 -3.1510 -20.9715 -4.4364 1.6982 7.1250 -0.0000 -0.0000 4.6988 -34.6995 1.1915
